<?xml version="1.0" encoding="utf-8"?>
<!-- Generator: Adobe Illustrator 23.0.1, SVG Export Plug-In . SVG Version: 6.00 Build 0)  -->
<svg version="1.1" id="eqxuITRZcLw1" shape-rendering="geometricPrecision" text-rendering="geometricPrecision"
	 xmlns="http://www.w3.org/2000/svg" xmlns:xlink="http://www.w3.org/1999/xlink" x="0px" y="0px" viewBox="0 0 153 153"
	 style="enable-background:new 0 0 153 153;" xml:space="preserve">
<g id="eqxuITRZcLw2" transform="matrix(0.10000000000000 0 0 -0.10000000000000 0 153)">
	<path id="eqxuITRZcLw3" d="M698,1433c6-2,18-2,25,0c6,3,1,5-13,5S691,1436,698,1433z"/>
	<path id="eqxuITRZcLw4" d="M838,1433c12-2,30-2,40,0c9,3-1,5-23,4C833,1437,825,1435,838,1433z"/>
	<g id="eqxuITRZcLw5_tr" transform="translate(810.230736,738.551109) rotate(360)">
		<path id="eqxuITRZcLw5" d="M-155.2,650.4c-70-17-189-61-230-87c-114-71-231-177-241-217c-8-30,1-44,18-27c26,26,25,9-2-55
			c-49-119-52-136-57-266c-5-105-3-126,8-122c10,3,21-16,38-68c13-39,35-94,49-122c24-49,95-143,119-158c7-4,19-20,27-36
			c9-16,39-41,75-60c136-72,288-104,391-82c55,12,175,65,241,107c21,13,67,35,103,50c35,14,67,32,70,40c4,11,1,11-19-2
			c-46-30-46-8,0,41c72,78,150,282,144,378c-2,23,3,54,11,70l13,27l28-32c25-27,29-29,35-14c11,30-4,158-26,221c-12,33-23,71-25,84
			c-3,22-25,54-25,37c0-5-7-3-15,4s-15,21-15,31c0,11-6,19-12,19c-7,0-31,20-53,44c-28,31-51,46-75,50l-35,6l31-28c62-55,57-65-9-19
			c-37,27-104,68-150,92c-66,36-77,45-54,45c15,0,50-12,78-26s53-23,56-20c3,2-12,14-34,25c-39,21-24,29,21,11c52-19,24,2-40,31
			c-63,29-72,30-232,33C-40.2,657.4-133.2,655.4-155.2,650.4z M-70.2,589.4c-30-5-81-15-112-22c-32-8-55-10-53-6c5,8,30,14,130,34
			c11,2,36,4,55,4C-24.2,598.4-29.2,596.4-70.2,589.4z M152.8,517.4c58-21,144-84,226-166c87-88,125-157,109-200c-5-16-8-45-6-67
			c3-33,6-38,28-38c23,0,25-4,28-50c4-67-14-164-46-244c-21-53-43-84-114-157c-108-111-171-148-281-163c-115-16-164-14-271,13
			c-202,52-285,114-345,261c-18,44-39,89-46,100s-15,38-18,60s-8,60-11,85c-9,70,11,167,53,255c53,112,106,174,193,228
			c69,43,140,66,288,90C-4.2,533.4,116.8,529.4,152.8,517.4z"/>
	</g>
	<g id="eqxuITRZcLw6_ts" transform="translate(778.268280,728.262939) scale(0,0)">
		<path id="eqxuITRZcLw6" d="M-60.3,356.7c-109-30-169-94-176-185c-7-103,32-144,193-201c129-45,163-65,182-103
			c39-82-38-156-161-156c-22,0-75,10-119,21c-87,24-98,21-100-32c-2-32,0-33,58-52c77-24,212-26,274-3c96,35,151,105,151,192
			c0,93-56,151-188,195c-151,50-202,88-202,150c0,37,59,85,121,98c53,11,155,3,203-15c10-4,20,6,31,32c19,45,15,48-70,63
			C58.7,374.7-0.3,373.7-60.3,356.7z"/>
	</g>
	<path id="eqxuITRZcLw7" d="M251,263c7-12,15-20,18-17c3,2-3,12-13,22C239,284,238,284,251,263z"/>
</g>
</svg>
